nColumns=28
nRows=29
DataType=double
version=3
OpenSimVersion=4.2
endheader
time	ground_force_1_vx	ground_force_1_vy	ground_force_1_vz	ground_force_1_px	ground_force_1_py	ground_force_1_pz	ground_moment_1_mx	ground_moment_1_my	ground_moment_1_mz	ground_force_2_vx	ground_force_2_vy	ground_force_2_vz	ground_force_2_px	ground_force_2_py	ground_force_2_pz	ground_moment_2_mx	ground_moment_2_my	ground_moment_2_mz	ground_force_3_vx	ground_force_3_vy	ground_force_3_vz	ground_force_3_px	ground_force_3_py	ground_force_3_pz	ground_moment_3_mx	ground_moment_3_my	ground_moment_3_mz
0.615	-26.36965751647949	796.2887573242188	112.3137664794922	0.2	5.5292802981503e-17	-0.903	-49.6218828125	-12.4911904296875	48.43058984375	0	0	0	0.2	1.83697019872103e-17	-0.3	0	0	0	0	0	0	0.2	-1.85533990070824e-17	0.303	0	0	0
0.616	-25.94544219970703	795.9494018554688	112.8228225708008	0.2	5.5292802981503e-17	-0.903	-49.79429296875	-12.542908203125	48.1892265625	0	0	0	0.2	1.83697019872103e-17	-0.3	0	0	0	0	0	0	0.2	-1.85533990070824e-17	0.303	0	0	0
0.617	-26.0302848815918	795.2706298828125	113.6712493896485	0.2	5.5292802981503e-17	-0.903	-49.9666953125	-12.4911904296875	48.32716015625	0	0	0	0.2	1.83697019872103e-17	-0.3	0	0	0	0	0	0	0.2	-1.85533990070824e-17	0.303	0	0	0
0.618	-25.52122688293457	794.5919189453125	114.3499984741211	0.2	5.5292802981503e-17	-0.903	-50.380453125	-12.646349609375	48.396109375	0	0	0	0.2	1.83697019872103e-17	-0.3	0	0	0	0	0	0	0.2	-1.85533990070824e-17	0.303	0	0	0
0.619	-25.60606956481934	795.9494018554688	116.1316986083985	0.2	5.5292802981503e-17	-0.903	-50.4838984375	-12.629111328125	48.0168359375	0	0	0	0.2	1.83697019872103e-17	-0.3	0	0	0	0	0	0	0.2	-1.85533990070824e-17	0.303	0	0	0
0.62	-25.01216697692871	792.89501953125	116.9801330566407	0.2	5.5292802981503e-17	-0.903	-50.380453125	-12.6980693359375	48.1892265625	0	0	0	0.2	1.83697019872103e-17	-0.3	0	0	0	0	0	0	0.2	-1.85533990070824e-17	0.303	0	0	0
0.621	-25.35153961181641	794.9312744140625	118.8466796875	0.2	5.5292802981503e-17	-0.903	-50.6218203125	-12.7497900390625	48.085796875	0	0	0	0.2	1.83697019872103e-17	-0.3	0	0	0	0	0	0	0.2	-1.85533990070824e-17	0.303	0	0	0
0.622	-25.26669692993164	793.5737915039063	119.1012115478516	0.2	5.5292802981503e-17	-0.903	-51.1390234375	-12.853232421875	48.12027734375	0	0	0	0.2	1.83697019872103e-17	-0.3	0	0	0	0	0	0	0.2	-1.85533990070824e-17	0.303	0	0	0
0.623	-24.84248161315918	793.5737915039063	120.7132263183594	0.2	5.5292802981503e-17	-0.903	-51.1735	-12.8877138671875	48.0168359375	0	0	0	0.2	1.83697019872103e-17	-0.3	0	0	0	0	0	0	0.2	-1.85533990070824e-17	0.303	0	0	0
0.624	-24.67279624938965	790.5194091796875	122.3252487182618	0.2	5.5292802981503e-17	-0.903	-51.242453125	-12.904953125	47.91338671875	0	0	0	0.2	1.83697019872103e-17	-0.3	0	0	0	0	0	0	0.2	-1.85533990070824e-17	0.303	0	0	0
0.625	-24.41826629638672	790.8588256835938	122.3252487182618	0.2	5.5292802981503e-17	-0.903	-51.2769375	-13.00839453125	48.0168359375	0	0	0	0.2	1.83697019872103e-17	-0.3	0	0	0	0	0	0	0.2	-1.85533990070824e-17	0.303	0	0	0
0.626	-24.16373634338379	793.5737915039063	122.6646194458008	0.2	5.5292802981503e-17	-0.903	-51.55278515625	-12.9911513671875	47.80995703125	0	0	0	0.2	1.83697019872103e-17	-0.3	0	0	0	0	0	0	0.2	-1.85533990070824e-17	0.303	0	0	0
0.627	-23.99405097961426	790.5194091796875	124.8705444335938	0.2	5.5292802981503e-17	-0.903	-51.6906953125	-13.19803515625	47.6375546875	0	0	0	0.2	1.83697019872103e-17	-0.3	0	0	0	0	0	0	0.2	-1.85533990070824e-17	0.303	0	0	0
0.628	-23.5698356628418	788.4832153320313	125.973503112793	0.2	5.5292802981503e-17	-0.903	-51.828625	-13.232515625	47.56859375	0	0	0	0.2	1.83697019872103e-17	-0.3	0	0	0	0	0	0	0.2	-1.85533990070824e-17	0.303	0	0	0
0.629	-23.2304630279541	786.1076049804688	126.8219299316407	0.2	5.5292802981503e-17	-0.903	-51.55278515625	-13.180794921875	47.430671875	0	0	0	0.2	1.83697019872103e-17	-0.3	0	0	0	0	0	0	0.2	-1.85533990070824e-17	0.303	0	0	0
0.63	-23.65467834472656	785.7682495117188	127.7552032470704	0.2	5.5292802981503e-17	-0.903	-51.966546875	-13.3359560546875	47.2927421875	-0.351930171251297	31.91457748413086	7.593117237091066	0.2	1.83697019872103e-17	-0.3	0.8043206176757812	1.271114135742188	-1.355348754882812	0	0	0	0.2	-1.85533990070824e-17	0.303	0	0	0
0.631	-22.72140502929688	783.3926391601563	128.9430084228516	0.2	5.5292802981503e-17	-0.903	-52.242390625	-13.3876748046875	47.25826171875	0.4116576910018921	41.07763290405273	11.92011547088623	0.2	1.83697019872103e-17	-0.3	0.838801025390625	1.409034790039063	-1.424308959960938	0	0	0	0.2	-1.85533990070824e-17	0.303	0	0	0
0.632	-22.04265975952148	784.7501220703125	129.1975402832032	0.2	5.5292802981503e-17	-0.903	-52.27687109375	-13.3704345703125	47.085859375	-0.8609887361526489	46.84696197509766	15.31383895874024	0.2	1.83697019872103e-17	-0.3	1.183603149414062	1.633156372070312	-1.493269409179687	0	0	0	0.2	-1.85533990070824e-17	0.303	0	0	0
0.633	-22.97593307495117	782.7138671875	131.1489257812501	0.2	5.5292802981503e-17	-0.903	-52.44926953125	-13.491115234375	46.94794921875	-2.642693758010864	56.68876266479492	20.31958198547364	0.2	1.83697019872103e-17	-0.3	1.080162475585938	1.564196166992188	-1.458789184570312	0	0	0	0.2	-1.85533990070824e-17	0.303	0	0	0
0.634	-21.70328712463379	779.3201293945313	133.3548431396485	0.2	5.5292802981503e-17	-0.903	-52.48375	-13.52559765625	46.672109375	-2.218478202819824	61.10060119628906	23.2042465209961	0.2	1.83697019872103e-17	-0.3	1.287044189453125	1.736597290039062	-1.6656708984375	0	0	0	0.2	-1.85533990070824e-17	0.303	0	0	0
0.635	-21.78812980651855	776.6051635742188	131.7428283691407	0.2	5.5292802981503e-17	-0.903	-52.6216640625	-13.6290380859375	46.672109375	-3.745653867721558	68.56679534912109	24.90110969543457	0.2	1.83697019872103e-17	-0.3	1.3215244140625	1.753837524414062	-1.769111572265625	0	0	0	0.2	-1.85533990070824e-17	0.303	0	0	0
0.636	-22.21234512329102	775.9264526367188	132.9306335449219	0.2	5.5292802981503e-17	-0.903	-52.51823046875	-13.6462783203125	46.43074609375	-4.594084739685059	75.35424041748047	25.7495403289795	0.2	1.83697019872103e-17	-0.3	1.42496484375	1.702116821289063	-1.907032470703125	0	0	0	0.2	-1.85533990070824e-17	0.303	0	0	0
0.637	-20.26095390319824	772.8720703125	135.2214050292969	0.2	5.5292802981503e-17	-0.903	-52.6906328125	-13.52559765625	46.25834375	-3.575967788696289	80.44483184814453	25.83438301086426	0.2	1.83697019872103e-17	-0.3	1.459445068359375	1.753837524414063	-2.1139140625	0	0	0	0.2	-1.85533990070824e-17	0.303	0	0	0
0.638	-20.34579658508301	769.8177490234375	135.4759216308594	0.2	5.5292802981503e-17	-0.903	-52.41479296875	-13.6807587890625	46.016984375	-4.254712581634521	87.91101837158203	24.73142242431641	0.2	1.83697019872103e-17	-0.3	1.459445068359375	1.684876953125	-1.9415126953125	0	0	0	0.2	-1.85533990070824e-17	0.303	0	0	0
0.639	-20.09126853942871	765.0665283203125	136.2395172119141	0.2	5.5292802981503e-17	-0.903	-52.897515625	-13.78419921875	45.672171875	-5.103143692016602	93.34098052978516	23.88299179077149	0.2	1.83697019872103e-17	-0.3	1.5628857421875	1.702116821289063	-2.251835205078125	0	0	0	0.2	-1.85533990070824e-17	0.303	0	0	0
0.64	-19.58220863342285	766.0845947265625	137.1727905273438	0.2	5.5292802981503e-17	-0.903	-52.72511328125	-13.6462783203125	45.672171875	-4.339555740356445	101.1465454101563	25.07079505920411	0.2	1.83697019872103e-17	-0.3	1.528405517578125	1.7883173828125	-2.1139140625	0	0	0	0.2	-1.85533990070824e-17	0.303	0	0	0
0.641	-18.98830795288086	762.69091796875	137.8515319824219	0.2	5.5292802981503e-17	-0.903	-52.552703125	-13.801439453125	45.18945703125	-5.187986373901367	110.3096008300781	25.4101676940918	0.2	1.83697019872103e-17	-0.3	1.700807006835938	1.7883173828125	-2.320795654296875	0	0	0	0.2	-1.85533990070824e-17	0.303	0	0	0
0.642	-18.05503463745117	760.9940185546875	138.4454345703126	0.2	5.5292802981503e-17	-0.903	-52.75959375	-13.78419921875	45.25841015625	-5.951574325561523	116.0789260864258	25.66469764709473	0.2	1.83697019872103e-17	-0.3	1.769767456054687	1.736597290039063	-2.320795654296875	0	0	0	0.2	-1.85533990070824e-17	0.303	0	0	0
0.643	-18.2247200012207	759.2971801757813	139.2938690185547	0.2	5.5292802981503e-17	-0.903	-52.48375	-13.78419921875	44.87913671875	-8.15749454498291	126.5994720458984	27.95545959472657	0.2	1.83697019872103e-17	-0.3	1.700807006835938	1.874518310546875	-2.49319677734375	0	0	0	0.2	-1.85533990070824e-17	0.303	0	0	0
